<svg id="Layer_1" data-name="Layer 1" xmlns="http://www.w3.org/2000/svg" viewBox="0 0 23.55 42.96"><title>Artboard 1 copy 112</title><path d="M13.89,7.32V17.61h6.86a2.13,2.13,0,0,1,0,4.26H13.89v2.92h6.86a2.13,2.13,0,0,1,0,4.26H13.89v2.47h6.86a2.13,2.13,0,0,1,0,4.26H13.89v5.08a2.13,2.13,0,0,1-4.26,0V35.78H2.77a2.13,2.13,0,0,1,0-4.26H9.63V29.05H2.77a2.13,2.13,0,0,1,0-4.26H9.63V21.87H2.77a2.13,2.13,0,0,1,0-4.26H9.63V7.34l-6,6.09a2.16,2.16,0,0,1-3,0,2.14,2.14,0,0,1,0-3L10.24.64a.5.5,0,0,1,.19-.13A1.75,1.75,0,0,1,11,.16a2.11,2.11,0,0,1,1.6,0,1.75,1.75,0,0,1,.53.35.5.5,0,0,1,.19.13l9.65,9.73a2.12,2.12,0,0,1-3,3Z"/></svg>